<?xml version="1.0" encoding="UTF-8" standalone="no"?>
<svg
        xmlns:inkscape="http://www.inkscape.org/namespaces/inkscape"
        xmlns:sodipodi="http://sodipodi.sourceforge.net/DTD/sodipodi-0.dtd"
        version="1.1"
        width="800"
        height="800"
        id="svg50"
        sodipodi:docname="eye.svg"
        inkscape:version="1.2.1 (9c6d41e410, 2022-07-14)"
        xmlns="http://www.w3.org/2000/svg"
>
    <defs
            id="defs54"/>
    <sodipodi:namedview
            id="namedview52"
            pagecolor="#ffffff"
            bordercolor="#000000"
            borderopacity="0.25"
            inkscape:showpageshadow="2"
            inkscape:pageopacity="0.0"
            inkscape:pagecheckerboard="0"
            inkscape:deskcolor="#d1d1d1"
            showgrid="false"
            inkscape:zoom="1.1481646"
            inkscape:cx="365.8012"
            inkscape:cy="330.96299"
            inkscape:window-width="2400"
            inkscape:window-height="1284"
            inkscape:window-x="2391"
            inkscape:window-y="-9"
            inkscape:window-maximized="1"
            inkscape:current-layer="svg50"/>
    <path
            d="m 430.17758,180.53812 c 0.72474,0.10215 1.44947,0.2043 2.19617,0.30954 13.68594,1.9868 26.96992,5.26083 40.15539,9.44437 2.13395,0.67513 4.275,1.32814 6.42188,1.96094 21.09851,6.23934 41.04953,16.51717 59.72656,28.03515 0.88559,0.54527 1.77117,1.09055 2.68359,1.65235 6.65994,4.166 13.03205,8.63651 19.31641,13.34765 0.52384,0.39091 1.04769,0.78182 1.5874,1.18457 7.48205,5.59875 14.53275,11.48122 21.4126,17.81543 1.34978,1.19248 2.70373,2.38027 4.0625,3.5625 8.61797,7.51892 16.78494,15.09019 24.41016,23.62891 1.74481,1.93897 3.49787,3.86325 5.27343,5.77343 5.70326,6.13869 11.10297,12.42221 16.25391,19.03516 0.83727,1.04659 1.67589,2.0921 2.51562,3.13672 9.13946,11.4177 17.9008,23.25393 25.55079,35.73047 1.63147,2.64331 3.31501,5.23459 5.02343,7.82812 10.81219,16.70974 10.81219,16.70974 9.88282,24.34766 -2.27477,6.91566 -6.09179,12.85833 -9.97266,18.95703 -1.00944,1.6305 -2.0172,3.26205 -3.02344,4.89453 -5.08943,8.20477 -10.32806,16.2727 -15.97656,24.10547 -1.23182,1.74813 -2.46095,3.49816 -3.6875,5.25 -0.57492,0.81727 -1.14984,1.63453 -1.74219,2.47656 -1.34096,1.9414 -2.62001,3.90602 -3.88281,5.89844 -0.55688,0.78375 -1.11375,1.5675 -1.6875,2.375 -0.66,0 -1.32,0 -2,0 -0.34611,0.79277 -0.34611,0.79277 -0.69922,1.60156 -1.72106,3.17338 -3.89601,5.93899 -6.11328,8.77344 -0.42604,0.55172 -0.85207,1.10344 -1.29102,1.67187 -4.36012,5.62002 -8.86142,10.91807 -13.89648,15.95313 -2.09146,2.39024 -4.16903,4.79085 -6.23047,7.20703 -0.58394,0.59168 -1.16789,1.18336 -1.76953,1.79297 -0.66,0 -1.32,0 -2,0 -0.25523,0.58137 -0.51047,1.16273 -0.77344,1.76172 -3.35801,6.12784 -9.73474,10.76937 -14.98437,15.27344 -2.16409,1.8964 -4.26797,3.84832 -6.36768,5.81543 -14.30134,13.34667 -30.24713,24.87956 -46.87451,35.14941 -1.08539,0.68191 -2.17078,1.36383 -3.28906,2.06641 -5.77586,3.61531 -11.54774,7.02467 -17.71094,9.93359 -1.27183,0.64386 -2.54263,1.28977 -3.8125,1.9375 -12.06596,6.0096 -24.62308,11.73859 -37.64844,15.32422 -2.27298,0.66091 -4.49497,1.39887 -6.73437,2.16406 -16.54136,5.53927 -33.51027,7.84768 -50.80469,9.57422 -1.17434,0.13277 -2.34867,0.26555 -3.55859,0.40234 -3.15231,0.31224 -6.27521,0.48115 -9.44141,0.59766 -0.82822,0.0326 -1.65645,0.0651 -2.50977,0.0986 -13.85461,0.47005 -27.42668,-0.25902 -41.17773,-1.84863 -0.70426,-0.0785 -1.40852,-0.157 -2.13412,-0.23788 -8.83394,-1.00403 -17.23598,-2.6182 -25.78702,-5.06363 -3.44379,-0.96315 -6.8962,-1.75796 -10.39136,-2.51099 -4.62298,-1.04172 -8.67357,-2.47836 -13,-4.4375 -2.38233,-0.73272 -4.77315,-1.41005 -7.17969,-2.05859 -4.07226,-1.35931 -7.91685,-3.16165 -11.82031,-4.94141 -1.751,-0.78713 -3.50231,-1.57357 -5.25391,-2.35938 -1.76962,-0.79665 -3.53916,-1.59353 -5.30859,-2.39062 -0.9133,-0.41121 -1.8266,-0.82242 -2.76758,-1.24609 -2.22339,-1.00111 -4.4467,-2.00242 -6.66992,-3.00391 0,-0.66 0,-1.32 0,-2 -0.65355,-0.067 -1.30711,-0.13406 -1.98047,-0.20313 -4.23708,-1.11819 -7.60817,-3.28046 -11.33203,-5.54687 -0.72123,-0.43055 -1.44246,-0.86109 -2.18555,-1.30469 -1.44668,-0.86671 -2.88961,-1.73973 -4.32861,-2.61914 -1.49289,-0.91096 -2.99303,-1.8101 -4.49902,-2.69922 -0.73171,-0.43892 -1.46341,-0.87785 -2.21729,-1.33008 -0.66411,-0.39348 -1.32822,-0.78697 -2.01245,-1.19238 -0.47671,-0.36448 -0.95342,-0.72896 -1.44458,-1.10449 0,-0.66 0,-1.32 0,-2 -0.87398,-0.16436 -0.87398,-0.16436 -1.76562,-0.33203 -2.49583,-0.74613 -3.9439,-1.74923 -5.98438,-3.35547 -0.69996,-0.54398 -1.39992,-1.08797 -2.12109,-1.64844 -0.70254,-0.54914 -1.40508,-1.09828 -2.12891,-1.66406 -1.26927,-0.93962 -2.54009,-1.87714 -3.8125,-2.8125 -8.49135,-6.3892 -16.48836,-13.26363 -24.26953,-20.48828 -2.69609,-2.49398 -5.4242,-4.94548 -8.16797,-7.38672 -6.32082,-5.68368 -12.23546,-11.60636 -17.77344,-18.05469 -1.95454,-2.23265 -3.9598,-4.4125 -5.97925,-6.58642 -5.28021,-5.69081 -10.22541,-11.54363 -14.99731,-17.67139 -0.95459,-1.19882 -1.91041,-2.39667 -2.86719,-3.59375 -1.00277,-1.26028 -2.00537,-2.5207 -3.00781,-3.78125 -0.47695,-0.59539 -0.95391,-1.19077 -1.44531,-1.8042 -2.24794,-2.84302 -4.09237,-5.57467 -5.67969,-8.8208 -0.46535,-0.46366 -0.9307,-0.92732 -1.41016,-1.40503 -1.54428,-1.54927 -2.69078,-3.06717 -3.89453,-4.88794 -0.41653,-0.62689 -0.83305,-1.25377 -1.2622,-1.89966 -0.43168,-0.65831 -0.86335,-1.31661 -1.30811,-1.99487 -0.44328,-0.67184 -0.88655,-1.34369 -1.34326,-2.03589 -1.26526,-1.92252 -2.52453,-3.84882 -3.78174,-5.77661 -0.58266,-0.88945 -1.16531,-1.77891 -1.76562,-2.69531 -3.23438,-5.03742 -3.23438,-5.03742 -3.23438,-7.30466 -0.66,0 -1.32,0 -2,0 -0.20754,-0.53109 -0.41508,-1.06219 -0.62891,-1.60938 -1.70956,-3.91982 -2.96335,-6.54914 -6.87109,-8.51562 -4.17692,-2.23764 -5.56766,-3.54657 -7.5,-7.875 -1.944148,-8.09846 0.51377,-13.85686 4.625,-20.6875 1.74507,-2.8031 3.54401,-5.56493 5.375,-8.3125 0.86818,-1.33611 0.86818,-1.33611 1.75391,-2.69922 0.93426,-1.41794 1.88163,-2.82736 2.84375,-4.22656 1.58064,-2.33794 3.04731,-4.73389 4.52734,-7.13672 4.44346,-7.02067 9.48698,-13.58535 14.53125,-20.17969 1.08939,-1.42507 2.17091,-2.85617 3.25,-4.28906 3.9319,-5.16544 8.13692,-10.08364 12.39258,-14.98291 2.23234,-2.57595 4.43925,-5.15316 6.54834,-7.83203 6.29529,-7.95764 13.28185,-15.08819 20.47217,-22.23389 2.05215,-2.04142 4.09337,-4.09333 6.13379,-6.14648 7.20777,-7.21558 14.4809,-14.01539 22.54687,-20.27344 1.27455,-1.02335 2.54812,-2.04793 3.82031,-3.07422 17.5413,-13.92578 17.5413,-13.92578 21.17969,-13.92578 0,-0.66 0,-1.32 0,-2 1.90694,-1.32708 3.87916,-2.56079 5.875,-3.75 0.60006,-0.35852 1.20012,-0.71704 1.81836,-1.08642 1.21505,-0.72586 2.43151,-1.44935 3.64941,-2.17041 1.35097,-0.80963 2.68295,-1.65085 4.00879,-2.50098 12.58993,-8.01177 26.80551,-13.98888 40.64844,-19.49219 0.84305,-0.35578 1.68609,-0.71156 2.55469,-1.07812 5.09252,-2.12586 10.15878,-3.76879 15.51172,-5.11328 2.4437,-0.67357 4.80941,-1.42954 7.20703,-2.2461 37.0559,-12.46192 78.7577,-13.74188 117.22656,-8.3125 z"
            fill="#9b7a63"
            id="path2"/>
    <path
            d="m 528.67758,283.28812 c 8.96651,3.5866 17.2658,8.46429 25.49609,13.48437 1.77171,1.07242 3.55709,2.1224 5.35157,3.15625 0.91652,0.5311 1.83304,1.06219 2.77734,1.60938 1.25684,0.7193 1.25684,0.7193 2.53906,1.45312 0.60586,0.42797 1.21172,0.85594 1.83594,1.29688 0,0.66 0,1.32 0,2 0.99,0 1.98,0 3,0 0,0.66 0,1.32 0,2 0.80438,0.26812 1.60875,0.53625 2.4375,0.8125 0.84563,0.39187 1.69125,0.78375 2.5625,1.1875 0.33,0.99 0.66,1.98 1,3 1.64034,0.72904 3.31302,1.38655 5,2 2.8125,1.5 2.8125,1.5 5,3 0,0.66 0,1.32 0,2 1.11375,0.37125 1.11375,0.37125 2.25,0.75 2.98025,1.35466 4.52991,2.88191 6.75,5.25 0.99,0.66 1.98,1.32 3,2 0,0.66 0,1.32 0,2 0.57234,0.25781 1.14469,0.51562 1.73437,0.78125 2.47692,1.33241 4.39975,2.86931 6.51563,4.71875 1.05961,0.91266 1.05961,0.91266 2.14062,1.84375 1.60938,1.65625 1.60938,1.65625 1.60938,3.65625 0.66,0 1.32,0 2,0 0,0.66 0,1.32 0,2 0.66,0 1.32,0 2,0 2.125,1.875 2.125,1.875 4,4 0,0.66 0,1.32 0,2 0.66,0 1.32,0 2,0 0,0.66 0,1.32 0,2 0.5775,0.22945 1.155,0.45891 1.75,0.69531 2.83046,1.64127 4.27504,3.57984 6.25,6.17969 2.50458,3.27747 5.05768,6.23673 8,9.125 0.89008,1.0499 1.76718,2.11108 2.625,3.1875 2.06669,2.82286 2.06669,2.82286 4.375,3.8125 0.81635,1.41215 1.58017,2.85501 2.3125,4.3125 2.44273,4.54578 5.02049,7.35399 9.6875,9.6875 6.69845,0.76707 6.69845,0.76707 13.02344,-1.04687 2.1226,-1.76021 3.739,-3.47802 4.97656,-5.95313 0.66,0.33 1.32,0.66 2,1 -8.21369,14.8088 -17.09161,29.26004 -27,43 -1.23182,1.74813 -2.46095,3.49816 -3.6875,5.25 -0.57492,0.81727 -1.14984,1.63453 -1.74219,2.47656 -1.34096,1.9414 -2.62001,3.90602 -3.88281,5.89844 -0.55688,0.78375 -1.11375,1.5675 -1.6875,2.375 -0.66,0 -1.32,0 -2,0 -0.34611,0.79277 -0.34611,0.79277 -0.69922,1.60156 -1.72106,3.17338 -3.89601,5.93899 -6.11328,8.77344 -0.42603,0.55172 -0.85207,1.10344 -1.29102,1.67187 -4.36012,5.62002 -8.86142,10.91807 -13.89648,15.95313 -2.09146,2.39024 -4.16903,4.79085 -6.23047,7.20703 -0.58394,0.59168 -1.16789,1.18336 -1.76953,1.79297 -0.66,0 -1.32,0 -2,0 -0.25523,0.58137 -0.51047,1.16273 -0.77344,1.76172 -3.35801,6.12784 -9.73474,10.76937 -14.98437,15.27344 -2.16409,1.8964 -4.26797,3.84832 -6.36768,5.81543 -14.30134,13.34667 -30.24713,24.87956 -46.87451,35.14941 -1.62809,1.02287 -1.62809,1.02287 -3.28906,2.06641 -5.77586,3.61531 -11.54774,7.02467 -17.71094,9.93359 -1.27183,0.64386 -2.54263,1.28977 -3.8125,1.9375 -12.06596,6.0096 -24.62308,11.73859 -37.64844,15.32422 -2.27298,0.66091 -4.49497,1.39887 -6.73437,2.16406 -16.54136,5.53927 -33.51027,7.84768 -50.80469,9.57422 -1.17434,0.13277 -2.34867,0.26555 -3.55859,0.40234 -3.15231,0.31224 -6.27521,0.48115 -9.44141,0.59766 -0.82822,0.0326 -1.65645,0.0651 -2.50977,0.0986 -13.85461,0.47005 -27.42668,-0.25902 -41.17773,-1.84863 -0.70426,-0.0785 -1.40852,-0.157 -2.13412,-0.23788 -8.83394,-1.00403 -17.23598,-2.6182 -25.78702,-5.06363 -3.44379,-0.96315 -6.8962,-1.75796 -10.39136,-2.51099 -4.62298,-1.04172 -8.67357,-2.47836 -13,-4.4375 -2.38233,-0.73272 -4.77315,-1.41005 -7.17969,-2.05859 -4.07226,-1.35928 -7.91685,-3.16162 -11.82031,-4.94138 -1.751,-0.78713 -3.50231,-1.57357 -5.25391,-2.35938 -1.76962,-0.79665 -3.53916,-1.59353 -5.30859,-2.39062 -0.9133,-0.41121 -1.8266,-0.82242 -2.76758,-1.24609 -2.22339,-1.00111 -4.4467,-2.00242 -6.66992,-3.00391 0,-0.66 0,-1.32 0,-2 -0.65355,-0.067 -1.30711,-0.13406 -1.98047,-0.20313 -4.23708,-1.11819 -7.60817,-3.28046 -11.33203,-5.54687 -0.72123,-0.43055 -1.44246,-0.86109 -2.18555,-1.30469 -1.44668,-0.86671 -2.88961,-1.73973 -4.32861,-2.61914 -1.49289,-0.91096 -2.99303,-1.8101 -4.49902,-2.69922 -0.73171,-0.43892 -1.46341,-0.87785 -2.21729,-1.33008 -0.66411,-0.39348 -1.32822,-0.78697 -2.01245,-1.19238 -0.47671,-0.36448 -0.95342,-0.72896 -1.44458,-1.10449 0,-0.66 0,-1.32 0,-2 -0.58266,-0.10957 -1.16531,-0.21914 -1.76562,-0.33203 -2.49583,-0.74613 -3.9439,-1.74923 -5.98438,-3.35547 -0.69996,-0.54398 -1.39992,-1.08797 -2.12109,-1.64844 -0.70254,-0.54914 -1.40508,-1.09828 -2.12891,-1.66406 -1.26927,-0.93962 -2.54009,-1.87714 -3.8125,-2.8125 -8.49135,-6.3892 -16.48836,-13.26363 -24.26953,-20.48828 -2.69609,-2.49398 -5.4242,-4.94548 -8.16797,-7.38672 -6.32082,-5.68368 -12.23546,-11.60636 -17.77344,-18.05469 -1.95454,-2.23265 -3.9598,-4.4125 -5.97925,-6.58642 -5.28021,-5.69081 -10.22541,-11.54363 -14.99731,-17.67139 -0.95459,-1.19882 -1.91041,-2.39667 -2.86719,-3.59375 -1.00277,-1.26028 -2.00537,-2.5207 -3.00781,-3.78125 -0.47695,-0.59539 -0.95391,-1.19077 -1.44531,-1.8042 -2.24794,-2.84302 -4.09237,-5.57467 -5.67969,-8.8208 -0.69803,-0.69549 -0.69803,-0.69549 -1.41016,-1.40503 -1.54428,-1.54927 -2.69078,-3.06717 -3.89453,-4.88794 -0.41653,-0.62689 -0.83305,-1.25377 -1.2622,-1.89966 -0.43168,-0.65831 -0.86335,-1.31661 -1.30811,-1.99487 -0.44328,-0.67184 -0.88655,-1.34369 -1.34326,-2.03589 -1.26526,-1.92252 -2.52453,-3.84882 -3.78174,-5.77661 -0.58266,-0.88945 -1.16531,-1.77891 -1.76562,-2.69531 -3.23438,-5.03745 -3.23438,-5.03745 -3.23438,-7.30469 -0.66,0 -1.32,0 -2,0 -1.32,-2.97 -2.64,-5.94 -4,-9 2.35125,-0.21656 2.35125,-0.21656 4.75,-0.4375 3.18208,-0.29309 6.16915,-0.70591 9.25,-1.5625 0,-0.66 0,-1.32 0,-2 1,-1 2,-2 3,-3 1.79675,-2.73057 3.48523,-5.51598 5.18359,-8.30859 1.74663,-2.58802 3.4618,-4.64624 5.81641,-6.69141 0.66,0 1.32,0 2,0 0.38261,-0.87048 0.38261,-0.87048 0.77295,-1.75855 1.35441,-2.47411 2.86117,-4.11866 4.85986,-6.10473 0.72446,-0.72252 1.44891,-1.44504 2.19532,-2.18945 0.75796,-0.74573 1.51593,-1.49145 2.29687,-2.25977 0.73477,-0.73412 1.46953,-1.46824 2.22656,-2.22461 13.57041,-13.46289 13.57041,-13.46289 16.64844,-13.46289 0.22688,-0.5775 0.45375,-1.155 0.6875,-1.75 1.66098,-2.8474 3.62775,-4.37067 6.3125,-6.25 0.66,0 1.32,0 2,0 0.33,-0.99 0.66,-1.98 1,-3 3.44444,-3 3.44444,-3 6,-3 0,-0.66 0,-1.32 0,-2 1.65,-0.66 3.3,-1.32 5,-2 0,-0.66 0,-1.32 0,-2 1.65,-0.66 3.3,-1.32 5,-2 0,-0.66 0,-1.32 0,-2 1.65,-0.66 3.3,-1.32 5,-2 0,-0.66 0,-1.32 0,-2 1.89844,-1.50781 1.89844,-1.50781 4.375,-3.125 0.81211,-0.53883 1.62422,-1.07766 2.46094,-1.63281 2.16406,-1.24219 2.16406,-1.24219 4.16406,-1.24219 0.495,-1.485 0.495,-1.485 1,-3 2.1875,-1.61328 2.1875,-1.61328 5,-3.3125 3.67003,-2.25445 7.30496,-4.52742 10.875,-6.9375 0.72961,-0.48598 1.45922,-0.97195 2.21094,-1.47266 1.4743,-0.98387 2.94497,-1.9732 4.41406,-2.96484 3.66877,-1.92611 7.54733,-3.09828 11.5,-4.3125 0,-0.66 0,-1.32 0,-2 0.99,0 1.98,0 3,0 -1.83155,4.61687 -3.75487,9.19259 -5.68359,13.76953 -2.71258,6.65668 -5.1353,13.40208 -7.37891,20.23047 -0.25588,0.73605 -0.51176,1.47211 -0.77539,2.23047 -4.32903,13.28755 -4.57053,27.41976 -4.53711,41.26953 -1.2e-4,0.77737 -2.4e-4,1.55475 -3.7e-4,2.35568 0.0472,21.4794 3.42941,40.50012 12.25037,60.14432 0.34732,0.77545 0.69464,1.5509 1.05249,2.34985 6.65904,14.69894 14.81047,27.93577 25.68189,39.88062 1.39062,1.76953 1.39062,1.76953 1.39062,3.76953 0.61875,0.0825 1.2375,0.165 1.875,0.25 0.70125,0.2475 1.4025,0.495 2.125,0.75 0.41766,0.90105 0.41766,0.90105 0.84375,1.82031 1.46907,2.7694 3.24999,3.98057 5.78125,5.80469 1.49301,1.07855 2.96149,2.19417 4.375,3.375 0,0.66 0,1.32 0,2 1.65,0.66 3.3,1.32 5,2 0,0.66 0,1.32 0,2 0.72188,0.26812 1.44375,0.53625 2.1875,0.8125 2.81016,1.18651 5.29667,2.46236 7.8125,4.1875 0,0.66 0,1.32 0,2 0.80438,0.15469 0.80438,0.15469 1.625,0.3125 3.00002,0.86843 5.61295,2.2437 8.375,3.6875 0,0.66 0,1.32 0,2 1.09369,0.17523 1.09369,0.17523 2.20947,0.354 2.82853,0.6548 4.89553,1.60303 7.43897,2.98194 5.18479,2.66816 10.41505,4.56508 15.97656,6.28906 0.9564,0.29922 1.91281,0.59845 2.89819,0.90674 28.36424,8.65189 58.63616,8.76928 87.47681,2.46826 1.23492,-0.25008 2.46984,-0.50016 3.74219,-0.75781 5.84552,-1.29405 10.81635,-3.29571 16.08984,-6.1211 2.16797,-1.12109 2.16797,-1.12109 5.23047,-2.12109 4.29444,-1.46194 8.02071,-3.73429 11.9375,-6 0.92039,-0.50531 1.84078,-1.01063 2.78906,-1.53125 26.45899,-14.80028 47.52861,-37.54869 61.21094,-64.46875 0.55172,-1.07508 1.10344,-2.15016 1.67187,-3.25781 7.57904,-15.58782 11.5046,-31.72589 14.32813,-48.74219 0.26478,-1.42868 0.26478,-1.42868 0.53491,-2.88623 2.33731,-15.64834 1.29797,-32.81558 -2.53491,-48.11377 -0.26433,-1.31902 -0.52193,-2.63941 -0.77344,-3.96094 -2.58244,-12.97198 -7.05202,-26.62332 -14.0039,-37.92969 -1.22266,-2.10937 -1.22266,-2.10937 -1.22266,-6.10937 z"
            fill="#f9f9f9"
            id="path4"/>
    <path
            d="m 430.17758,180.53812 c 0.72474,0.10215 1.44947,0.2043 2.19617,0.30954 13.68594,1.9868 26.96992,5.26083 40.15539,9.44437 2.13395,0.67513 4.275,1.32814 6.42188,1.96094 21.09851,6.23934 41.04953,16.51717 59.72656,28.03515 0.88559,0.54527 1.77117,1.09055 2.68359,1.65235 6.65994,4.166 13.03205,8.63651 19.31641,13.34765 0.52384,0.39091 1.04769,0.78182 1.5874,1.18457 7.48205,5.59875 14.53275,11.48122 21.4126,17.81543 1.34978,1.19248 2.70373,2.38027 4.0625,3.5625 8.61797,7.51892 16.78494,15.09019 24.41016,23.62891 1.74481,1.93897 3.49787,3.86325 5.27343,5.77343 5.70326,6.13869 11.10297,12.42221 16.25391,19.03516 0.83727,1.04659 1.67589,2.0921 2.51562,3.13672 9.13946,11.4177 17.9008,23.25393 25.55079,35.73047 1.63147,2.64331 3.31501,5.23459 5.02343,7.82812 10.40588,16.12729 10.40588,16.12729 9.33203,25.38281 -0.13921,0.63422 -0.27843,1.26844 -0.42187,1.92188 -0.99,0.33 -1.98,0.66 -3,1 -0.28875,0.59812 -0.5775,1.19625 -0.875,1.8125 -1.63666,3.1824 -2.98666,4.39416 -6.125,6.1875 -5.17317,0.78859 -9.52285,0.6689 -14.3125,-1.5 -3.38022,-3.14439 -6.36593,-6.49077 -8.6875,-10.5 0,-0.99 0,-1.98 0,-3 -0.99,-0.33 -1.98,-0.66 -3,-1 -0.70984,-1.65628 -1.41259,-3.31606 -2.07422,-4.99219 -1.72157,-3.7337 -4.39629,-6.7919 -6.92578,-10.00781 -1.63206,-2.12008 -3.2568,-4.24446 -4.875,-6.375 -0.78117,-1.01836 -1.56234,-2.03672 -2.36719,-3.08594 -1.75781,-2.53906 -1.75781,-2.53906 -1.75781,-4.53906 -0.66,0 -1.32,0 -2,0 -1.76953,-1.94141 -1.76953,-1.94141 -3.8125,-4.5625 -0.71414,-0.91266 -1.42828,-1.82531 -2.16406,-2.76563 -1.61712,-2.13534 -3.1832,-4.2852 -4.71094,-6.48437 -2.23626,-3.08241 -4.55831,-5.56766 -7.3125,-8.1875 -2.05685,-1.95937 -4.03535,-3.94397 -6,-6 0,-0.66 0,-1.32 0,-2 -0.55688,-0.20625 -1.11375,-0.4125 -1.6875,-0.625 -2.56886,-1.52743 -4.01579,-3.37788 -5.86328,-5.69141 -2.807,-3.26095 -6.17485,-5.90738 -9.44922,-8.68359 -0.98871,-0.86496 -1.97742,-1.72992 -2.99609,-2.62109 -18.96986,-16.56666 -38.95097,-31.25887 -61.08252,-43.31885 -1.96558,-1.08444 -3.91209,-2.19725 -5.85498,-3.32178 -0.63197,-0.36577 -1.26393,-0.73154 -1.91504,-1.1084 -1.72162,-0.99932 -3.44238,-2.00009 -5.16309,-3.00097 -2.62393,-1.4303 -5.1888,-2.59533 -7.98828,-3.62891 0.66,0.66 1.32,1.32 2,2 0.44731,0.44988 0.89461,0.89977 1.35547,1.36328 1.2426,1.2367 2.49737,2.46118 3.75781,3.67969 0.72574,0.7077 1.45149,1.41539 2.19922,2.14453 1.04607,1.01127 1.04607,1.01127 2.11328,2.04297 1.57422,1.76953 1.57422,1.76953 1.57422,3.76953 0.99,0.33 1.98,0.66 3,1 1.9026,2.19308 3.68209,4.3822 5.4375,6.6875 0.7164,0.91942 0.7164,0.91942 1.44727,1.85742 2.87466,3.71853 5.55454,7.51416 8.11523,11.45508 -0.33,0.66 -0.66,1.32 -1,2 -0.64099,-0.28609 -1.28197,-0.57218 -1.94238,-0.86694 -38.0755,-16.86595 -78.16634,-28.32181 -120.05762,-29.13306 -1.07991,-0.0311 -2.15982,-0.0622 -3.27246,-0.0942 -20.01383,-0.53632 -38.97713,0.99821 -58.72754,4.09424 -1.5285,0.21849 -3.05712,0.43612 -4.58594,0.65234 -25.3886,4.07176 -51.78386,13.80115 -74.46484,25.81641 -2.94922,1.53125 -2.94922,1.53125 -5.94922,2.53125 0.43274,-5.23315 3.21408,-8.4848 6.3125,-12.5 0.53254,-0.69907 1.06509,-1.39815 1.61377,-2.11841 6.89351,-8.91381 14.28849,-17.2938 23.07373,-24.38159 -3.36781,0.68375 -6.10055,1.95927 -9.14062,3.54688 -1.48307,0.77343 -1.48307,0.77343 -2.9961,1.5625 -1.02738,0.5414 -2.05476,1.08281 -3.11328,1.64062 -1.01191,0.52594 -2.02383,1.05188 -3.06641,1.59375 -4.53313,2.37534 -8.98194,4.78579 -13.29296,7.54688 -3.39063,2.10937 -3.39063,2.10937 -5.39063,2.10937 0,0.66 0,1.32 0,2 -2.97,0.99 -2.97,0.99 -6,2 0,0.66 0,1.32 0,2 -0.99,0 -1.98,0 -3,0 0,0.66 0,1.32 0,2 -0.99,0 -1.98,0 -3,0 0,0.66 0,1.32 0,2 -3.49655,2.60209 -6.89161,4.54998 -11,6 0,0.66 0,1.32 0,2 -1.67969,1.50781 -1.67969,1.50781 -3.875,3.125 -0.7193,0.53883 -1.43859,1.07766 -2.17969,1.63281 -1.94531,1.24219 -1.94531,1.24219 -3.94531,1.24219 0,0.66 0,1.32 0,2 -3.46154,3 -3.46154,3 -6,3 -0.495,1.485 -0.495,1.485 -1,3 -4.45714,4 -4.45714,4 -7,4 -0.21141,0.55043 -0.42281,1.10086 -0.64062,1.66797 -1.83592,3.14955 -4.39835,5.27054 -7.10938,7.64453 -5.23006,4.69642 -10.15091,9.60248 -14.9375,14.75 -0.59974,0.643 -1.19947,1.286 -1.81738,1.94849 -2.39927,2.60082 -4.52477,5.03348 -6.49512,7.98901 -0.66,0 -1.32,0 -2,0 -0.28875,0.59812 -0.5775,1.19625 -0.875,1.8125 -1.125,2.1875 -1.125,2.1875 -3.125,5.1875 -0.66,0 -1.32,0 -2,0 -0.66,1.65 -1.32,3.3 -2,5 -0.66,0 -1.32,0 -2,0 -0.66,1.65 -1.32,3.3 -2,5 -0.66,0 -1.32,0 -2,0 -0.33,1.32 -0.66,2.64 -1,4 -0.66,0 -1.32,0 -2,0 -0.33,1.32 -0.66,2.64 -1,4 -0.66,0 -1.32,0 -2,0 -0.33,1.32 -0.66,2.64 -1,4 -0.66,0 -1.32,0 -2,0 0,0.99 0,1.98 0,3 -0.66,0 -1.32,0 -2,0 -0.34225,1.00547 -0.34225,1.00547 -0.69141,2.03125 -1.6761,3.8025 -3.90072,7.05054 -6.24609,10.46875 -0.88518,1.30136 -1.76932,2.60343 -2.65234,3.90625 -0.4175,0.6123 -0.83499,1.22461 -1.26514,1.85547 -1.00769,1.5298 -1.9296,3.11537 -2.83643,4.70703 -0.64775,1.00547 -0.64775,1.00547 -1.30859,2.03125 -0.66,0 -1.32,0 -2,0 0,0.66 0,1.32 0,2 -3.36937,2.02809 -6.0321,2.29773 -9.9375,2.3125 -1.01965,0.0168 -2.0393,0.0335 -3.08984,0.0508 -4.59558,-0.56161 -7.14823,-2.49429 -10.28516,-5.80078 -2.57465,-5.43537 -2.98332,-9.66652 -1.6875,-15.5625 2.63971,-6.0422 6.35412,-11.52901 10,-17 0.86818,-1.33611 0.86818,-1.33611 1.75391,-2.69922 0.93426,-1.41794 1.88163,-2.82736 2.84375,-4.22656 1.58064,-2.33794 3.04731,-4.73389 4.52734,-7.13672 4.44346,-7.02067 9.48698,-13.58535 14.53125,-20.17969 1.08939,-1.42507 2.17091,-2.85617 3.25,-4.28906 3.9319,-5.16544 8.13692,-10.08364 12.39258,-14.98291 2.23234,-2.57595 4.43925,-5.15316 6.54834,-7.83203 6.29529,-7.95764 13.28185,-15.08819 20.47217,-22.23389 2.05215,-2.04142 4.09337,-4.09333 6.13379,-6.14648 7.20777,-7.21558 14.4809,-14.01539 22.54687,-20.27344 1.27455,-1.02335 2.54812,-2.04793 3.82031,-3.07422 17.5413,-13.9258 17.5413,-13.9258 21.17969,-13.9258 0,-0.66 0,-1.32 0,-2 1.90694,-1.32708 3.87916,-2.56079 5.875,-3.75 0.60006,-0.35852 1.20012,-0.71704 1.81836,-1.08642 1.21505,-0.72586 2.43151,-1.44935 3.64941,-2.17041 1.35097,-0.80963 2.68295,-1.65085 4.00879,-2.50098 12.58993,-8.01177 26.80551,-13.98888 40.64844,-19.49219 0.84305,-0.35578 1.68609,-0.71156 2.55469,-1.07812 5.09252,-2.12586 10.15878,-3.76879 15.51172,-5.11328 2.4437,-0.67357 4.80941,-1.42954 7.20703,-2.2461 37.0559,-12.46192 78.7577,-13.74188 117.22656,-8.3125 z"
            fill="#626262"
            id="path6"/>
    <path
            d="m 415.67758,293.28812 c 0,0.66 0,1.32 0,2 1.25684,-0.13535 1.25684,-0.13535 2.53906,-0.27344 4.54963,0.35945 7.13057,2.12662 10.83594,4.64844 0.64066,0.4125 1.28133,0.825 1.94141,1.25 1.60532,1.06109 3.15072,2.2117 4.68359,3.375 0,0.66 0,1.32 0,2 0.55687,0.22687 1.11375,0.45375 1.6875,0.6875 2.95945,1.67969 4.97377,3.85383 7.3125,6.3125 0.59812,0.55687 1.19625,1.11375 1.8125,1.6875 1.1875,1.3125 1.1875,1.3125 1.1875,3.3125 0.66,0 1.32,0 2,0 12.62112,17.93025 16.33835,38.01206 13.25,59.4375 -2.02834,10.28159 -6.83997,18.68803 -12.25,27.5625 -0.48856,0.87141 -0.97711,1.74281 -1.48047,2.64063 -1.55294,2.41124 -3.07527,3.96686 -5.26953,5.79687 -0.70254,0.59039 -1.40508,1.18078 -2.12891,1.78906 -0.69996,0.58524 -1.39992,1.17047 -2.12109,1.77344 -0.62777,0.56461 -1.25555,1.12922 -1.90234,1.71094 -3.20542,2.87575 -5.89156,5.01448 -10.09766,6.28906 0,0.66 0,1.32 0,2 -17.71632,9.57639 -38.8741,12.22229 -58.37769,6.90894 -14.05879,-4.28959 -26.77281,-12.01972 -35.62231,-23.90894 -0.33129,-0.71801 -0.66258,-1.43602 -1.00391,-2.17578 -0.92004,-2.17725 -0.92004,-2.17725 -3.99609,-2.82422 -1.02734,-1.53125 -1.02734,-1.53125 -1.9375,-3.5 -0.33902,-0.72961 -0.67805,-1.45922 -1.02734,-2.21094 -0.34161,-0.75539 -0.68321,-1.51078 -1.03516,-2.28906 -0.33129,-0.67289 -0.66258,-1.34578 -1.00391,-2.03906 -1.09371,-2.29038 -2.06084,-4.60124 -2.99609,-6.96094 -0.37641,-0.94875 -0.75281,-1.8975 -1.14063,-2.875 -6.47621,-18.97257 -3.6829,-38.58775 4.82813,-56.3125 9.02584,-17.73642 24.14428,-30.06761 42.79687,-36.76953 14.77508,-4.38327 34.03776,-4.79512 48.51563,0.95703 z"
            fill="#212121"
            id="path8"/>
    <path
            d="m 132.67758,381.28812 c 2.50038,2.17424 3.43629,3.73046 4,7 0.66,0 1.32,0 2,0 4.42857,7.42857 4.42857,7.42857 5,11 0.66,0 1.32,0 2,0 0.66,1.98 1.32,3.96 2,6 0.66,0 1.32,0 2,0 1.28906,1.67969 1.28906,1.67969 2.625,3.875 0.66902,1.07894 0.66902,1.07894 1.35156,2.17969 1.02344,1.94531 1.02344,1.94531 1.02344,3.94531 0.66,0 1.32,0 2,0 1.22656,1.61719 1.22656,1.61719 2.625,3.875 2.96884,4.63697 6.30777,8.83668 9.83594,13.05859 1.53906,2.06641 1.53906,2.06641 1.53906,4.06641 0.66,0 1.32,0 2,0 1.40234,1.64453 1.40234,1.64453 2.9375,3.8125 1.50002,2.10617 2.89408,4.02453 4.75391,5.82422 1.30859,1.36328 1.30859,1.36328 1.30859,3.36328 1.485,0.495 1.485,0.495 3,1 1.42969,1.67187 1.42969,1.67187 2.875,3.75 2.41642,3.45957 5.10557,6.30049 8.125,9.25 1.01915,1.03819 2.03597,2.07866 3.05078,3.12109 5.18965,5.29067 10.2317,10.42664 16.32422,14.69141 2.45979,1.79754 4.47357,4.03607 6.625,6.1875 2.11443,1.59872 4.25477,3.14706 6.42578,4.66797 0.51949,0.43957 1.03899,0.87914 1.57422,1.33203 0,0.66 0,1.32 0,2 1.98,0.495 1.98,0.495 4,1 0,0.66 0,1.32 0,2 0.57621,0.27973 1.15242,0.55945 1.74609,0.84766 2.17333,1.11114 4.24097,2.30619 6.31641,3.58984 1.0074,0.61682 1.0074,0.61682 2.03516,1.24609 1.90234,1.31641 1.90234,1.31641 3.45312,2.87891 1.55835,1.69544 1.55835,1.69544 4.57422,3 2.875,1.4375 2.875,1.4375 3.875,3.4375 1.99145,1.01691 3.99187,2.01643 6,3 0.66,0.66 1.32,1.32 2,2 0.825,0.33 1.65,0.66 2.5,1 2.5,1 2.5,1 4.5,3 1.57781,0.55687 1.57781,0.55687 3.1875,1.125 4.17597,1.48228 7.94929,3.54471 11.8125,5.6875 7.75334,4.22708 15.62926,7.40194 24,10.1875 0.86158,0.28762 1.72315,0.57524 2.61084,0.87158 12.37575,4.07301 24.66317,7.20976 37.50635,9.40186 3.88281,0.72656 3.88281,0.72656 4.88281,1.72656 6.18024,0.9977 12.25654,1.17485 18.50781,1.20312 1.50287,0.009 1.50287,0.009 3.0361,0.0173 2.11963,0.009 4.23928,0.016 6.35892,0.0198 3.16418,0.01 6.32768,0.0406 9.4917,0.0723 18.06873,0.095 35.67445,-1.64422 53.23047,-6.0625 1.03504,-0.25531 2.07007,-0.51063 3.13647,-0.77368 31.16669,-7.92268 60.68266,-22.28227 86.86353,-40.85913 0.67031,-0.46922 1.34062,-0.93844 2.03125,-1.42188 0.89429,-0.63397 0.89429,-0.63397 1.80664,-1.28076 1.53711,-0.91457 1.53711,-0.91457 3.53711,-0.91457 0,-0.66 0,-1.32 0,-2 1.60937,-1.14844 1.60937,-1.14844 3.75,-2.375 3.21227,-1.9126 5.64906,-3.92402 8.25,-6.625 0.66,0 1.32,0 2,0 0.33,-0.99 0.66,-1.98 1,-3 1.986,-1.35409 3.98818,-2.68458 6,-4 1.67974,-1.65349 3.34395,-3.32278 5,-5 1.14529,-1.07258 2.29673,-2.13862 3.45312,-3.19922 7.23429,-6.64083 14.1268,-13.35449 20.54688,-20.80078 1.49873,-1.66781 2.99868,-3.33452 4.5,-5 2.54766,-2.79957 2.54766,-2.79957 4.5,-6 0.66,0 1.32,0 2,0 0.26812,-0.57234 0.53625,-1.14469 0.8125,-1.73438 1.22883,-2.34447 2.61272,-4.38967 4.1875,-6.51562 0.51562,-0.70641 1.03125,-1.41281 1.5625,-2.14063 0.47437,-0.53109 0.94875,-1.06218 1.4375,-1.60937 0.66,0 1.32,0 2,0 0.25652,-0.5543 0.51305,-1.10859 0.77734,-1.67969 1.39817,-2.65339 3.04118,-5.00593 4.78516,-7.44531 2.40482,-3.32592 2.40482,-3.32592 4.4375,-6.875 0.66,0 1.32,0 2,0 0.26812,-0.72188 0.53625,-1.44375 0.8125,-2.1875 1.18651,-2.81016 2.46236,-5.29667 4.1875,-7.8125 0.66,0 1.32,0 2,0 0.66,-1.98 1.32,-3.96 2,-6 0.66,0 1.32,0 2,0 0.26812,-0.7193 0.53625,-1.43859 0.8125,-2.17969 1.19174,-2.83039 2.58639,-5.32749 4.1875,-7.94531 0.51562,-0.8482 1.03125,-1.69641 1.5625,-2.57031 1.11509,-1.78778 2.26873,-3.55154 3.4375,-5.30469 0.86625,1.17562 0.86625,1.17562 1.75,2.375 2.76184,3.22214 4.63608,4.39339 8.83594,4.99609 6.48821,0.2228 6.48821,0.2228 12.03906,-2.74609 2.36118,-2.37365 2.36118,-2.37365 3.375,-4.625 0.66,0.33 1.32,0.66 2,1 -8.21369,14.8088 -17.09161,29.26004 -27,43 -1.23182,1.74813 -2.46095,3.49816 -3.6875,5.25 -0.86238,1.2259 -0.86238,1.2259 -1.74219,2.47656 -1.34096,1.9414 -2.62001,3.90602 -3.88281,5.89844 -0.83531,1.17562 -0.83531,1.17562 -1.6875,2.375 -0.66,0 -1.32,0 -2,0 -0.23074,0.52852 -0.46148,1.05703 -0.69922,1.60156 -1.72106,3.17338 -3.89601,5.93899 -6.11328,8.77344 -0.63905,0.82758 -0.63905,0.82758 -1.29102,1.67187 -4.36012,5.62002 -8.86142,10.91807 -13.89648,15.95313 -2.09146,2.39024 -4.16903,4.79085 -6.23047,7.20703 -0.58394,0.59168 -1.16789,1.18336 -1.76953,1.79297 -0.66,0 -1.32,0 -2,0 -0.25523,0.58137 -0.51047,1.16273 -0.77344,1.76172 -3.35801,6.12784 -9.73474,10.76937 -14.98437,15.27344 -2.16409,1.8964 -4.26797,3.84832 -6.36768,5.81543 -14.30134,13.34667 -30.24713,24.87956 -46.87451,35.14941 -1.62809,1.02287 -1.62809,1.02287 -3.28906,2.06641 -5.77586,3.61531 -11.54774,7.02467 -17.71094,9.93359 -1.27183,0.64386 -2.54263,1.28977 -3.8125,1.9375 -12.06596,6.0096 -24.62308,11.73859 -37.64844,15.32422 -2.27298,0.66091 -4.49496,1.39887 -6.73437,2.16406 -16.54136,5.53927 -33.51027,7.84768 -50.80469,9.57422 -1.17434,0.13277 -2.34867,0.26555 -3.55859,0.40234 -3.15231,0.31224 -6.27521,0.48115 -9.44141,0.59766 -0.82822,0.0325 -1.65645,0.0651 -2.50977,0.0986 -13.85461,0.47005 -27.42668,-0.25902 -41.17773,-1.84863 -0.70426,-0.0785 -1.40852,-0.157 -2.13412,-0.23788 -8.83394,-1.00403 -17.23598,-2.6182 -25.78702,-5.06363 -3.44379,-0.96315 -6.8962,-1.75796 -10.39136,-2.51099 -4.62298,-1.04172 -8.67357,-2.47836 -13,-4.4375 -2.38233,-0.73272 -4.77315,-1.41005 -7.17969,-2.05859 -4.07226,-1.35928 -7.91685,-3.16162 -11.82031,-4.94138 -1.751,-0.78713 -3.50231,-1.57357 -5.25391,-2.35938 -1.76962,-0.79665 -3.53916,-1.59353 -5.30859,-2.39062 -0.9133,-0.41121 -1.8266,-0.82242 -2.76758,-1.24609 -2.22339,-1.00111 -4.4467,-2.00242 -6.66992,-3.00391 0,-0.66 0,-1.32 0,-2 -0.65355,-0.067 -1.30711,-0.13406 -1.98047,-0.20313 -4.23708,-1.11819 -7.60817,-3.28046 -11.33203,-5.54687 -0.72123,-0.43055 -1.44246,-0.86109 -2.18555,-1.30469 -1.44668,-0.86671 -2.88961,-1.73973 -4.32861,-2.61914 -1.49289,-0.91096 -2.99303,-1.8101 -4.49902,-2.69922 -0.73171,-0.43892 -1.46341,-0.87785 -2.21729,-1.33008 -0.66411,-0.39348 -1.32822,-0.78697 -2.01245,-1.19238 -0.47671,-0.36448 -0.95342,-0.72896 -1.44458,-1.10449 0,-0.66 0,-1.32 0,-2 -0.58266,-0.10957 -1.16531,-0.21914 -1.76562,-0.33203 -2.49583,-0.74613 -3.9439,-1.74923 -5.98438,-3.35547 -0.69996,-0.54398 -1.39992,-1.08797 -2.12109,-1.64844 -0.70254,-0.54914 -1.40508,-1.09828 -2.12891,-1.66406 -1.26927,-0.93962 -2.54009,-1.87714 -3.8125,-2.8125 -8.49135,-6.3892 -16.48836,-13.26363 -24.26953,-20.48828 -2.69609,-2.49398 -5.4242,-4.94548 -8.16797,-7.38672 -6.32082,-5.68368 -12.23546,-11.60636 -17.77344,-18.05469 -1.95454,-2.23265 -3.9598,-4.4125 -5.97925,-6.58642 -5.28021,-5.69081 -10.22541,-11.54363 -14.99731,-17.67139 -0.95459,-1.19882 -1.91041,-2.39667 -2.86719,-3.59375 -1.00277,-1.26028 -2.00537,-2.5207 -3.00781,-3.78125 -0.47695,-0.59539 -0.95391,-1.19077 -1.44531,-1.8042 -2.24794,-2.84303 -4.09237,-5.57467 -5.67969,-8.8208 -0.46535,-0.46366 -0.9307,-0.92732 -1.41016,-1.40503 -1.54428,-1.54927 -2.69078,-3.06717 -3.89453,-4.88794 -0.41653,-0.62689 -0.83305,-1.25377 -1.2622,-1.89966 -0.43168,-0.65831 -0.86335,-1.31661 -1.30811,-1.99487 -0.44328,-0.67184 -0.88655,-1.34369 -1.34326,-2.03589 -1.26526,-1.92252 -2.52453,-3.84882 -3.78174,-5.77661 -0.58266,-0.88945 -1.16531,-1.77891 -1.76563,-2.69531 -3.23437,-5.03745 -3.23437,-5.03745 -3.23437,-7.30469 -0.66,0 -1.32,0 -2,0 -1.32,-2.97 -2.64,-5.94 -4,-9 1.5675,-0.14438 3.135,-0.28875 4.75,-0.4375 3.18208,-0.29309 6.16915,-0.70591 9.25,-1.5625 0,-0.66 0,-1.32 0,-2 1,-1 2,-2 3,-3 1.03357,-1.64606 2.0406,-3.30963 3,-5 z"
            fill="#b0bdc4"
            id="path10"/>
    <path
            d="m 450.67758,227.28812 c 0.79874,0.16371 1.59747,0.32742 2.42041,0.4961 9.1214,1.91156 17.70571,5.24351 26.39209,8.5664 0.92748,0.35127 1.85496,0.70254 2.81055,1.06445 0.89396,0.34096 1.78793,0.68192 2.70898,1.03321 0.80156,0.30559 1.60311,0.61117 2.42896,0.92602 4.82744,1.97025 7.59805,4.10736 11.23901,7.91382 0.69223,0.6716 1.38445,1.3432 2.09766,2.03516 0.7309,0.71027 1.46179,1.42054 2.21484,2.15234 1.04607,1.01127 1.04607,1.01127 2.11328,2.04297 1.57422,1.76953 1.57422,1.76953 1.57422,3.76953 0.99,0.33 1.98,0.66 3,1 1.9026,2.19308 3.68209,4.3822 5.4375,6.6875 0.4776,0.61295 0.95519,1.2259 1.44727,1.85742 2.87466,3.71853 5.55454,7.51416 8.11523,11.45508 -0.33,0.66 -0.66,1.32 -1,2 -0.64099,-0.28609 -1.28197,-0.57218 -1.94238,-0.86694 -38.0755,-16.86595 -78.16634,-28.32181 -120.05762,-29.13306 -1.07991,-0.0311 -2.15982,-0.0622 -3.27246,-0.0942 -20.01383,-0.53632 -38.97713,0.99821 -58.72754,4.09424 -1.5285,0.21849 -3.05712,0.43612 -4.58594,0.65234 -25.3886,4.07176 -51.78386,13.80115 -74.46484,25.81641 -2.94922,1.53125 -2.94922,1.53125 -5.94922,2.53125 0.43273,-5.23298 3.21395,-8.48506 6.3125,-12.5 0.53472,-0.70125 1.06944,-1.4025 1.62036,-2.125 3.57618,-4.62104 7.30351,-9.07055 11.25464,-13.375 0.44964,-0.49049 0.89928,-0.98098 1.36255,-1.48633 1.4515,-1.53984 2.94135,-3.0297 4.44995,-4.51367 0.64727,-0.65589 1.29454,-1.31178 1.96143,-1.98755 5.65855,-5.42884 11.16418,-8.18282 18.53857,-10.69995 1.06098,-0.37737 2.12196,-0.75474 3.21509,-1.14355 3.08619,-1.08455 6.18182,-2.13389 9.28491,-3.16895 0.77972,-0.26442 1.55944,-0.52884 2.36279,-0.80127 44.15344,-14.75883 90.63579,-13.92528 135.63721,-4.19873 z"
            fill="#806451"
            id="path12"/>
    <path
            d="m 530.67758,327.28812 c 0,0.66 0,1.32 0,2 0.59684,0.24492 1.19367,0.48984 1.80859,0.74219 5.21186,2.99147 8.84537,10.2197 10.71875,15.83984 2.15357,11.01702 0.72123,21.23697 -4.96484,30.84766 -5.72907,8.18045 -13.87453,13.33946 -23.5625,15.57031 -12.20126,1.13439 -21.61315,-0.63836 -31.1875,-8.37891 -7.76169,-6.94202 -12.00714,-15.27319 -13.01563,-25.72656 -0.24141,-10.72283 3.54558,-19.46073 10.45313,-27.51953 15.82074,-13.66337 31.89973,-13.60272 49.75,-3.375 z"
            fill="#d9baa5"
            id="path14"/>
    <path
            d="m 285.67758,242.28812 c 0,3 0,3 -1.87109,4.91016 -0.84692,0.71027 -1.69383,1.42054 -2.56641,2.15234 -11.68958,10.2448 -21.92579,22.78505 -28.5625,36.9375 -1.98,-0.495 -1.98,-0.495 -4,-1 0,0.66 0,1.32 0,2 -2.32006,1.59089 -4.54022,2.83333 -7.1875,3.79297 -3.79668,1.62941 -7.14914,3.79929 -10.625,6.01953 -1.36068,0.86068 -2.72135,1.72135 -4.08203,2.58203 -1.00692,0.64135 -1.00692,0.64135 -2.03418,1.29566 -2.78344,1.76015 -5.59114,3.48042 -8.40161,5.19702 -2.17402,1.44892 -3.85702,3.23971 -5.66968,5.11279 -5.55556,4 -5.55556,4 -8,4 0,0.66 0,1.32 0,2 -2.475,0.99 -2.475,0.99 -5,2 0,0.66 0,1.32 0,2 -2.475,0.99 -2.475,0.99 -5,2 0,0.66 0,1.32 0,2 -2.475,0.99 -2.475,0.99 -5,2 0,0.66 0,1.32 0,2 -1.99284,1.34401 -3.9942,2.67541 -6,4 -1.68874,1.6443 -3.35306,3.31384 -5,5 -1.21419,1.07861 -2.43774,2.14674 -3.66797,3.20703 -4.17575,3.63408 -8.23756,7.37561 -12.26953,11.16797 -0.6944,0.65194 -1.3888,1.30389 -2.10425,1.97559 -5.08475,4.7897 -10.06939,9.6594 -14.95825,14.64941 -0.99887,1.00113 -1.99846,2.00154 -3,3 0,-3.59858 0.95831,-5.09451 3,-8 0.66,0 1.32,0 2,0 0,-0.99 0,-1.98 0,-3 0.66,0 1.32,0 2,0 0.33,-1.32 0.66,-2.64 1,-4 0.66,0 1.32,0 2,0 0.33,-1.32 0.66,-2.64 1,-4 0.66,0 1.32,0 2,0 0.33,-1.32 0.66,-2.64 1,-4 0.66,0 1.32,0 2,0 0.66,-1.65 1.32,-3.3 2,-5 0.66,0 1.32,0 2,0 0.66,-1.65 1.32,-3.3 2,-5 0.66,0 1.32,0 2,0 0.25395,-0.57234 0.50789,-1.14469 0.76953,-1.73438 2.2145,-4.07748 5.57042,-7.24763 8.71289,-10.63037 1.7051,-1.83731 3.39985,-3.68395 5.0957,-5.52978 6.23716,-6.7538 12.48155,-13.32084 19.42188,-19.35938 1.59794,-1.39508 3.12505,-2.87114 4.625,-4.37109 2.13555,-2.13555 4.31401,-4.17231 6.5625,-6.1875 0.67418,-0.60457 1.34836,-1.20914 2.04297,-1.83203 1.76953,-1.35547 1.76953,-1.35547 3.76953,-1.35547 0,-0.66 0,-1.32 0,-2 1.67969,-1.50781 1.67969,-1.50781 3.875,-3.125 0.7193,-0.53883 1.43859,-1.07766 2.17969,-1.63281 1.94531,-1.24219 1.94531,-1.24219 3.94531,-1.24219 0,-0.66 0,-1.32 0,-2 3.49655,-2.60209 6.89161,-4.54998 11,-6 0,-0.66 0,-1.32 0,-2 0.99,0 1.98,0 3,0 0,-0.66 0,-1.32 0,-2 0.99,0 1.98,0 3,0 0,-0.66 0,-1.32 0,-2 3,-2 3,-2 6,-2 0,-0.66 0,-1.32 0,-2 0.546,-0.30293 1.092,-0.60586 1.65454,-0.91797 3.94044,-2.1875 7.87862,-4.37882 11.8103,-6.58203 7.76092,-4.34195 15.50571,-8.66685 23.53516,-12.5 z"
            fill="#afbcc3"
            id="path16"/>
    <path
            d="m 493.67758,242.28812 c 4.71653,1.41785 8.94128,3.40039 13.25,5.75 0.65678,0.35417 1.31355,0.70834 1.99023,1.07324 4.54428,2.46798 9.01242,5.04253 13.41602,7.75489 1.86053,1.12872 3.74997,2.20975 5.64844,3.27343 3.91292,2.22817 7.61892,4.71252 11.32031,7.27344 0.69585,0.48082 1.3917,0.96164 2.10864,1.45703 14.45245,10.06307 27.88527,21.2919 40.83667,33.21094 2.02115,1.83593 4.07372,3.59577 6.17969,5.33203 3.84231,3.25542 7.01979,7.0256 10.25,10.875 1.03993,1.23063 2.08152,2.45987 3.125,3.6875 0.4357,0.51949 0.87141,1.03898 1.32031,1.57422 1.2622,1.41124 2.591,2.7627 3.9375,4.09375 2.62135,2.64874 5.00322,5.38993 7.36719,8.26953 0.77859,0.94102 1.55719,1.88203 2.35938,2.85156 1.89062,2.52344 1.89062,2.52344 2.89062,5.52344 0.66,0 1.32,0 2,0 0.96239,1.37484 1.91387,2.75845 2.8125,4.17578 1.23888,1.90315 2.56495,3.70279 3.9375,5.51172 3.82433,5.05007 7.53433,10.18223 11.25,15.3125 -0.33,0.66 -0.66,1.32 -1,2 -1.70884,-1.6234 -3.37447,-3.29319 -5,-5 0,-0.66 0,-1.32 0,-2 -0.99,-0.33 -1.98,-0.66 -3,-1 -1.58131,-1.78144 -3.09489,-3.62379 -4.5625,-5.5 -2.75425,-3.80626 -2.75425,-3.80626 -6.4375,-6.5 0,-0.66 0,-1.32 0,-2 -0.66,0 -1.32,0 -2,0 0,-0.66 0,-1.32 0,-2 -1.98,-0.99 -1.98,-0.99 -4,-2 0,-0.66 0,-1.32 0,-2 -0.66,0 -1.32,0 -2,0 0,-0.66 0,-1.32 0,-2 -0.66,0 -1.32,0 -2,0 -1.17549,-1.44418 -2.34875,-2.89026 -3.50781,-4.34766 -2.03135,-2.24937 -4.35413,-3.80473 -6.85547,-5.49218 -2.117,-1.50059 -3.83815,-3.29736 -5.63672,-5.16016 -1.485,-0.99 -1.485,-0.99 -3,-2 0,-0.66 0,-1.32 0,-2 -1.65,-0.66 -3.3,-1.32 -5,-2 0,-0.66 0,-1.32 0,-2 -0.72187,-0.26813 -1.44375,-0.53625 -2.1875,-0.8125 -4.80832,-2.03018 -8.19575,-4.44604 -11.8125,-8.1875 -0.66,-0.33 -1.32,-0.66 -2,-1 0,-0.66 0,-1.32 0,-2 -0.99,0 -1.98,0 -3,0 0,-0.66 0,-1.32 0,-2 -0.825,-0.20625 -1.65,-0.4125 -2.5,-0.625 -3.77465,-1.4829 -6.2838,-3.39557 -9.44531,-5.87109 -2.47071,-1.80841 -5.00623,-3.06678 -7.76953,-4.36329 -4.00536,-1.99925 -7.80807,-4.35599 -11.64844,-6.65234 -2.61697,-1.58777 -2.61697,-1.58777 -5.63672,-2.48828 -0.66,0.66 -1.32,1.32 -2,2 -0.47309,-0.88301 -0.94617,-1.76602 -1.43359,-2.67578 -4.4643,-8.16682 -9.38456,-15.31953 -15.56641,-22.32422 -0.75539,-0.87656 -1.51078,-1.75312 -2.28906,-2.65625 -4.14352,-4.72731 -8.39215,-9.00727 -13.27735,-12.96875 -0.47308,-0.45375 -0.94617,-0.9075 -1.43359,-1.375 0,-0.66 0,-1.32 0,-2 z"
            fill="#b0bdc3"
            id="path18"/>
    <path
            d="m 284.05258,199.60062 c 0.53625,0.22688 1.0725,0.45375 1.625,0.6875 -1.375,0.6875 -2.75,1.375 -4.125,2.0625 -0.92039,0.46149 -1.84078,0.92297 -2.78906,1.39844 -2.07399,1.03437 -4.15222,2.06029 -6.23438,3.07812 -7.81212,3.84233 -15.42702,7.943 -22.98633,12.2605 -0.73412,0.41548 -1.46824,0.83096 -2.22461,1.25904 -0.65452,0.37439 -1.30904,0.74878 -1.98339,1.13452 -1.65723,0.80688 -1.65723,0.80688 -3.65723,0.80688 0,0.66 0,1.32 0,2 -7.42857,4.42857 -7.42857,4.42857 -11,5 0,0.66 0,1.32 0,2 -1.66139,1.17362 -3.3818,2.26425 -5.125,3.3125 -3.3303,2.04876 -6.49002,4.05238 -9.4375,6.625 -2.4375,2.0625 -2.4375,2.0625 -4.4375,2.0625 0,0.66 0,1.32 0,2 -1.65533,1.01866 -3.3226,2.01811 -5,3 -0.33,0.66 -0.66,1.32 -1,2 -2.93705,2.00956 -4.39223,3 -8,3 26.51357,-25 26.51357,-25 34,-25 0,-0.66 0,-1.32 0,-2 1.90694,-1.32708 3.87916,-2.56079 5.875,-3.75 0.60006,-0.35852 1.20012,-0.71704 1.81836,-1.08642 1.21505,-0.72586 2.43151,-1.44935 3.64941,-2.17041 1.35096,-0.80963 2.68295,-1.65085 4.00879,-2.50098 8.32878,-5.30014 17.41995,-9.25739 26.36133,-13.3999 1.92534,-0.91952 3.80784,-1.92799 5.67773,-2.95557 2.60938,-1.13672 2.60938,-1.13672 4.98438,-0.82422 z"
            fill="#a4afb6"
            id="path20"/>
    <path
            d="m 489.67758,197.28812 c 11.29497,1.18895 21.2908,7.68538 31.09058,12.98389 1.69579,0.90243 3.41266,1.765 5.13208,2.62158 4.41159,2.2151 8.57543,4.80874 12.77734,7.39453 1.51207,0.92813 1.51207,0.92813 3.05469,1.875 0.99258,0.61875 1.98515,1.2375 3.00781,1.875 0.9191,0.57235 1.8382,1.14469 2.78516,1.73438 2.15234,1.51562 2.15234,1.51562 3.15234,3.51562 -0.76312,-0.30937 -1.52625,-0.61875 -2.3125,-0.9375 -1.8754,-0.74143 -3.77435,-1.42478 -5.6875,-2.0625 0,-0.66 0,-1.32 0,-2 -0.72574,-0.27586 -1.45148,-0.55172 -2.19922,-0.83594 -2.66913,-1.10934 -5.09726,-2.37058 -7.61328,-3.78906 -5.39579,-2.9863 -10.88391,-5.74473 -16.41211,-8.47412 -3.59648,-1.78364 -7.11874,-3.62669 -10.58789,-5.65088 -4.13865,-2.37752 -8.47191,-3.87755 -13,-5.35547 -2.1875,-0.89453 -2.1875,-0.89453 -3.1875,-2.89453 z"
            fill="#9ea9af"
            id="path22"/>
    <path
            d="m 195.67758,254.28812 c 0.66,0.33 1.32,0.66 2,1 -8.33333,8.33333 -16.66667,16.66667 -25,25 -0.66,-0.33 -1.32,-0.66 -2,-1 8.25,-8.25 16.5,-16.5 25,-25 z"
            fill="#959ea4"
            id="path24"/>
    <path
            d="m 550.67758,229.28812 c 4.0522,1.38933 6.69832,3.30418 10,6 1.0956,0.84033 2.19473,1.67608 3.29687,2.50781 0.5659,0.42926 1.1318,0.85852 1.71485,1.30079 1.17255,0.88797 2.34707,1.77333 3.52344,2.65625 4.35365,3.31278 4.35365,3.31278 5.46484,5.53515 -2.97194,-1.12452 -5.33441,-2.22294 -8,-4 0,-0.66 0,-1.32 0,-2 -0.71672,-0.2475 -1.43344,-0.495 -2.17188,-0.75 -3.13587,-1.38602 -5.42316,-3.08788 -8.07812,-5.25 -0.87141,-0.70125 -1.74281,-1.4025 -2.64063,-2.125 -2.10937,-1.875 -2.10937,-1.875 -3.10937,-3.875 z"
            fill="#9ea8ae"
            id="path26"/>
    <path
            d="m 307.67758,191.28812 c 0,0.66 0,1.32 0,2 -1.1434,0.34934 -2.2868,0.69867 -3.46484,1.0586 -1.49094,0.45947 -2.98182,0.91911 -4.47266,1.3789 -0.75475,0.2301 -1.50949,0.4602 -2.28711,0.69727 -3.67748,0.89525 -3.67748,0.89525 -6.77539,2.86523 -1.66617,0.0406 -3.33388,0.0427 -5,0 3.4551,-3.01327 7.26618,-4.31616 11.5625,-5.6875 0.67225,-0.22494 1.34449,-0.44988 2.03711,-0.68164 2.91649,-0.95285 5.31273,-1.63086 8.40039,-1.63086 z"
            fill="#9ea9af"
            id="path28"/>
    <path
            d="m 493.67758,242.28812 c 3.91212,1.15585 6.8745,2.35535 10,5 -0.99,0.99 -1.98,1.98 -3,3 -1.17251,-0.95117 -2.33787,-1.91117 -3.5,-2.875 -0.64969,-0.53367 -1.29938,-1.06734 -1.96875,-1.61719 -0.50531,-0.49757 -1.01063,-0.99515 -1.53125,-1.50781 0,-0.66 0,-1.32 0,-2 z"
            fill="#9fa7aa"
            id="path30"/>
    <path
            d="m 632.67758,362.28812 c 3.99996,1.33332 4.83782,3.49578 7,7 -0.33,0.66 -0.66,1.32 -1,2 -5.57143,-5.14286 -5.57143,-5.14286 -6,-9 z"
            fill="#acb4b8"
            id="path32"/>
    <path
            d="m 233.67758,225.28812 c 0.99,0.66 1.98,1.32 3,2 -3,2 -3,2 -6,2 0,0.66 0,1.32 0,2 -0.99,0.33 -1.98,0.66 -3,1 -0.66,-0.66 -1.32,-1.32 -2,-2 1.98,-0.66 3.96,-1.32 6,-2 0,-0.66 0,-1.32 0,-2 0.66,-0.33 1.32,-0.66 2,-1 z"
            fill="#9ea8ae"
            id="path34"/>
    <path
            d="m 285.67758,242.28812 c 0,0.99 0,1.98 0,3 -3,2.1875 -3,2.1875 -6,4 0,-0.66 0,-1.32 0,-2 -0.66,-0.33 -1.32,-0.66 -2,-1 2.64,-1.32 5.28,-2.64 8,-4 z"
            fill="#9aa2a6"
            id="path36"/>
    <path
            d="m 224.67758,231.28812 c 0.99,0.33 1.98,0.66 3,1 -2.64,1.98 -5.28,3.96 -8,6 -0.66,-0.33 -1.32,-0.66 -2,-1 1.09284,-1.03295 2.19971,-2.05108 3.3125,-3.0625 0.61488,-0.56848 1.22977,-1.13695 1.86328,-1.72265 0.90299,-0.60135 0.90299,-0.60135 1.82422,-1.21485 z"
            fill="#a7b3ba"
            id="path38"/>
    <path
            d="m 550.67758,229.28812 c 4.59307,1.48599 7.43569,3.85015 11,7 -0.99,0.495 -0.99,0.495 -2,1 -1.31612,-0.95336 -2.62779,-1.91286 -3.9375,-2.875 -0.7309,-0.53367 -1.4618,-1.06734 -2.21484,-1.61719 -1.84766,-1.50781 -1.84766,-1.50781 -2.84766,-3.50781 z"
            fill="#a3aeb5"
            id="path40"/>
    <path
            d="m 367.67758,431.28812 c 2.64,0.33 5.28,0.66 8,1 0,0.66 0,1.32 0,2 0.66,0.33 1.32,0.66 2,1 -2.64,-0.33 -5.28,-0.66 -8,-1 0,-0.66 0,-1.32 0,-2 -0.66,-0.33 -1.32,-0.66 -2,-1 z"
            fill="#2e2a27"
            id="path42"/>
    <path
            d="m 341.67758,307.28812 c 0.33,0.66 0.66,1.32 1,2 -1.65,1.98 -3.3,3.96 -5,6 -0.66,-0.66 -1.32,-1.32 -2,-2 2,-2 4,-4 6,-6 z"
            fill="#2b2826"
            id="path44"/>
    <path
            d="m 405.67758,178.28812 c 3.3,0.33 6.6,0.66 10,1 -3.4352,2.29014 -4.98533,2.17843 -9,2 -0.33,-0.99 -0.66,-1.98 -1,-3 z"
            fill="#848b8e"
            id="path46"/>
    <path
            d="m 195.67758,254.28812 c 0.66,0.33 1.32,0.66 2,1 -2.84936,3.00766 -5.23512,5.27845 -9,7 0.97866,-1.14626 1.95795,-2.292 2.9375,-3.4375 0.54527,-0.63809 1.09055,-1.27617 1.65234,-1.93359 0.77812,-0.89882 1.56953,-1.78828 2.41016,-2.62891 z"
            fill="#a2adb4"
            id="path48"/>
</svg>
